<svg width="23" height="24" viewBox="0 0 23 24" fill="none" xmlns="http://www.w3.org/2000/svg">
<path d="M1.20632 8.43527C0.867432 8.77416 0.867432 9.31893 0.867432 10.4096V17.3494C0.867432 18.4401 0.867432 18.9849 1.20632 19.3237C1.54521 19.6626 2.08999 19.6626 3.18068 19.6626C4.27138 19.6626 4.81615 19.6626 5.15505 19.3237C5.49394 18.9849 5.49394 18.4401 5.49394 17.3494V10.4096C5.49394 9.31893 5.49394 8.77416 5.15505 8.43527C4.81615 8.09637 4.27138 8.09637 3.18068 8.09637C2.08999 8.09637 1.54521 8.09637 1.20632 8.43527Z" fill="#9747FF"/>
<path opacity="0.4" d="M17.3992 0.338892C17.0603 0.677783 17.0603 1.22255 17.0603 2.31325V17.3494C17.0603 18.4401 17.0603 18.9849 17.3992 19.3238C17.7381 19.6627 18.2829 19.6627 19.3736 19.6627C20.4643 19.6627 21.009 19.6627 21.3479 19.3238C21.6868 18.9849 21.6868 18.4401 21.6868 17.3494V2.31325C21.6868 1.22255 21.6868 0.677783 21.3479 0.338892C21.009 -3.44702e-08 20.4643 0 19.3736 0C18.2829 0 17.7381 -3.44702e-08 17.3992 0.338892Z" fill="#9747FF"/>
<path opacity="0.7" d="M8.96387 5.78313C8.96387 4.69243 8.96387 4.14766 9.30276 3.80877C9.64165 3.46988 10.1864 3.46988 11.2771 3.46988C12.3678 3.46988 12.9126 3.46988 13.2515 3.80877C13.5904 4.14766 13.5904 4.69243 13.5904 5.78313V17.3494C13.5904 18.4401 13.5904 18.9849 13.2515 19.3238C12.9126 19.6627 12.3678 19.6627 11.2771 19.6627C10.1864 19.6627 9.64165 19.6627 9.30276 19.3238C8.96387 18.9849 8.96387 18.4401 8.96387 17.3494V5.78313Z" fill="#9747FF"/>
<path d="M0.86747 22.2651C0.637403 22.2651 0.416758 22.3565 0.254076 22.5192C0.0913938 22.6818 0 22.9025 0 23.1325C0 23.3626 0.0913938 23.5833 0.254076 23.7459C0.416758 23.9086 0.637403 24 0.86747 24H21.6867C21.9168 24 22.1375 23.9086 22.3001 23.7459C22.4628 23.5833 22.5542 23.3626 22.5542 23.1325C22.5542 22.9025 22.4628 22.6818 22.3001 22.5192C22.1375 22.3565 21.9168 22.2651 21.6867 22.2651H0.86747Z" fill="#9747FF"/>
</svg>
