<svg width="24" height="24" viewBox="0 0 24 24" fill="none" xmlns="http://www.w3.org/2000/svg">
<path opacity="0.5" d="M12.8206 14.9626C12.6333 14.948 12.4563 14.8707 12.3182 14.7433C12.1801 14.6158 12.0889 14.4456 12.0592 14.26C12.0296 14.0744 12.0632 13.8843 12.1548 13.7202C12.2463 13.556 12.3904 13.4275 12.5639 13.3552C12.8139 13.2503 13.0562 13.0906 13.2839 12.864C13.429 12.7188 13.6225 12.6319 13.8275 12.62C14.0325 12.608 14.2347 12.6719 14.3957 12.7993C14.5234 12.8023 14.6488 12.8346 14.7621 12.8935C14.8755 12.9524 14.9739 13.0364 15.0498 13.1391C15.1258 13.2419 15.1772 13.3606 15.2002 13.4863C15.2233 13.612 15.2173 13.7412 15.1827 13.8642C14.9483 14.697 14.5129 15.513 13.9492 16.2609C13.8131 16.4311 13.616 16.5415 13.3997 16.5687C13.1834 16.5959 12.9651 16.5377 12.7911 16.4064C12.6171 16.2751 12.5011 16.0812 12.4679 15.8658C12.4346 15.6504 12.4867 15.4305 12.613 15.2529C12.6856 15.1557 12.7548 15.0597 12.8206 14.9626ZM10.3112 15.0084C10.4344 15.043 10.5638 15.049 10.6895 15.0259C10.8153 15.0027 10.9341 14.9511 11.0368 14.8749C11.1396 14.7987 11.2234 14.7 11.2821 14.5863C11.3407 14.4726 11.3725 14.3471 11.3751 14.2192C11.5019 14.0583 11.5653 13.8566 11.5534 13.6521C11.5414 13.4476 11.455 13.2546 11.3103 13.1096C11.1003 12.9038 10.9327 12.6588 10.8169 12.3885C10.7439 12.2162 10.6153 12.0733 10.4516 11.9826C10.2879 11.892 10.0986 11.8588 9.91379 11.8883C9.729 11.9179 9.55945 12.0085 9.43219 12.1457C9.30493 12.2829 9.22731 12.4588 9.21171 12.6452C9.11327 12.5784 9.0165 12.5092 8.92148 12.4376C8.83367 12.3714 8.73369 12.3232 8.62724 12.2956C8.52078 12.2681 8.40995 12.2618 8.30106 12.2771C8.08114 12.3079 7.8825 12.4249 7.74883 12.6023C7.61516 12.7796 7.55742 13.0028 7.58829 13.2227C7.61917 13.4426 7.73614 13.6412 7.91348 13.7749C8.66139 14.3386 9.47627 14.7729 10.3112 15.0084ZM6.05711 11.9397C6.19646 12.1071 6.39552 12.2135 6.61205 12.2365C6.82858 12.2595 7.04555 12.1972 7.21692 12.0628C7.38829 11.9285 7.50058 11.7327 7.52996 11.5169C7.55935 11.3012 7.50352 11.0825 7.37432 10.9072C6.92217 10.3325 6.54344 9.70362 6.24688 9.03519C6.20524 8.93075 6.14299 8.83578 6.06384 8.75592C5.9847 8.67607 5.89028 8.61298 5.78622 8.5704C5.68216 8.52783 5.57059 8.50666 5.45817 8.50814C5.34575 8.50962 5.23478 8.53373 5.13188 8.57903C5.02898 8.62433 4.93626 8.68989 4.85925 8.7718C4.78224 8.85372 4.72251 8.9503 4.68364 9.0558C4.64476 9.16129 4.62754 9.27354 4.63298 9.38583C4.63843 9.49813 4.66644 9.60818 4.71534 9.70942C5.0692 10.5131 5.52799 11.2655 6.05711 11.9397ZM4.00762 7.16877C4.03397 7.38933 4.14686 7.59039 4.32145 7.72772C4.49604 7.86505 4.71804 7.9274 4.9386 7.90105C5.15916 7.8747 5.36022 7.76181 5.49755 7.58722C5.63488 7.41263 5.69723 7.19063 5.67088 6.97007C5.58334 6.2757 5.6242 5.57115 5.79144 4.89156C5.8384 4.67889 5.80063 4.45628 5.68615 4.271C5.57167 4.08571 5.38949 3.95233 5.17828 3.89916C4.96708 3.846 4.74346 3.87723 4.5549 3.98624C4.36635 4.09524 4.22769 4.27344 4.16837 4.483C3.95076 5.36086 3.89627 6.27122 4.00762 7.16877ZM5.31144 2.04282C5.24474 2.13194 5.1965 2.23347 5.16951 2.34146C5.14253 2.44946 5.13735 2.56175 5.15428 2.67177C5.17122 2.78179 5.20992 2.88732 5.26813 2.98221C5.32634 3.07709 5.40288 3.15941 5.49329 3.22435C5.58369 3.2893 5.68614 3.33557 5.79464 3.36044C5.90313 3.38532 6.0155 3.38831 6.12517 3.36924C6.23484 3.35018 6.33961 3.30943 6.43334 3.24939C6.52707 3.18934 6.60789 3.11121 6.67106 3.01956C6.86864 2.74496 7.0986 2.47258 7.36316 2.20803C7.51574 2.0502 7.60022 1.83876 7.59842 1.61924C7.59662 1.39973 7.50867 1.1897 7.35352 1.0344C7.19836 0.879103 6.98842 0.790955 6.76891 0.788945C6.54939 0.786935 6.33787 0.871222 6.1799 1.02365C5.86334 1.33894 5.5729 1.68053 5.31144 2.04282ZM11.7356 8.74719C11.6637 8.8422 11.5941 8.93897 11.5269 9.03742C11.7138 9.05255 11.8902 9.13 12.0279 9.25735C12.1655 9.38471 12.2564 9.55459 12.286 9.73976C12.3156 9.92494 12.2822 10.1147 12.1911 10.2786C12.1 10.4425 11.9565 10.5711 11.7836 10.6437C11.5138 10.7594 11.2693 10.9266 11.0636 11.136C10.9185 11.281 10.7253 11.3676 10.5206 11.3796C10.3158 11.3915 10.1139 11.3279 9.95292 11.2008C9.82519 11.1977 9.69984 11.1654 9.58645 11.1065C9.47305 11.0476 9.3746 10.9636 9.29859 10.8609C9.22258 10.7582 9.17102 10.6395 9.14784 10.5139C9.12466 10.3882 9.13047 10.2589 9.16483 10.1358C9.40037 9.3031 9.8346 8.48709 10.3983 7.73919C10.4645 7.65138 10.5473 7.57747 10.6421 7.52167C10.7368 7.46588 10.8417 7.42929 10.9505 7.414C11.0594 7.39871 11.1703 7.40502 11.2767 7.43256C11.3832 7.46011 11.4832 7.50835 11.571 7.57454C11.6588 7.64072 11.7327 7.72356 11.7885 7.81831C11.8443 7.91306 11.8809 8.01787 11.8962 8.12676C11.9114 8.23565 11.9051 8.34649 11.8776 8.45294C11.8501 8.55939 11.8018 8.65938 11.7356 8.74719ZM14.0374 8.99165C13.9142 8.95681 13.7847 8.95068 13.6588 8.97373C13.5328 8.99678 13.4139 9.0484 13.311 9.12462C13.2082 9.20084 13.1242 9.29963 13.0655 9.4134C13.0068 9.52716 12.975 9.65287 12.9725 9.78086C12.8458 9.94185 12.7825 10.1437 12.7947 10.3482C12.8068 10.5526 12.8935 10.7456 13.0383 10.8904C13.266 11.1182 13.4257 11.3604 13.5306 11.6104C13.6032 11.7833 13.7318 11.9268 13.8957 12.0179C14.0597 12.109 14.2494 12.1425 14.4346 12.1129C14.6198 12.0833 14.7896 11.9923 14.917 11.8547C15.0443 11.717 15.1218 11.5406 15.1369 11.3537C15.2329 11.4207 15.33 11.4899 15.4272 11.5624C15.6049 11.6899 15.8254 11.7428 16.0416 11.7098C16.2578 11.6768 16.4525 11.5605 16.584 11.3858C16.7156 11.2111 16.7735 10.9918 16.7455 10.7749C16.7175 10.558 16.6057 10.3607 16.434 10.2251C15.6861 9.66142 14.8712 9.22719 14.0374 8.99165ZM18.2904 12.0603C18.2239 11.9701 18.14 11.8942 18.0437 11.837C17.9473 11.7799 17.8405 11.7426 17.7295 11.7275C17.6185 11.7124 17.5056 11.7197 17.3974 11.749C17.2893 11.7783 17.1882 11.8291 17.1 11.8982C17.0118 11.9673 16.9384 12.0534 16.8841 12.1514C16.8299 12.2494 16.7958 12.3573 16.784 12.4687C16.7721 12.5801 16.7828 12.6928 16.8153 12.8C16.8478 12.9072 16.9015 13.0068 16.9732 13.0929C17.4197 13.6633 17.8059 14.2973 18.1006 14.9649C18.195 15.1602 18.3615 15.3113 18.565 15.3863C18.7686 15.4613 18.9933 15.4544 19.1918 15.367C19.3904 15.2796 19.5472 15.1185 19.6294 14.9177C19.7115 14.717 19.7125 14.4921 19.6322 14.2906C19.2794 13.4943 18.8287 12.745 18.2904 12.0603ZM20.341 16.8313C20.328 16.7221 20.2935 16.6165 20.2397 16.5206C20.1858 16.4247 20.1136 16.3403 20.0272 16.2723C19.9407 16.2043 19.8417 16.154 19.7359 16.1243C19.63 16.0945 19.5193 16.086 19.41 16.099C19.3008 16.112 19.1953 16.1465 19.0994 16.2003C19.0034 16.2542 18.9191 16.3264 18.8511 16.4128C18.7831 16.4993 18.7328 16.5983 18.703 16.7042C18.6733 16.8101 18.6647 16.9208 18.6778 17.03C18.765 17.7244 18.7237 18.429 18.5561 19.1085C18.5019 19.3239 18.5355 19.552 18.6495 19.7426C18.7635 19.9332 18.9485 20.0707 19.1639 20.1249C19.3793 20.179 19.6074 20.1454 19.798 20.0315C19.9886 19.9175 20.1261 19.7324 20.1803 19.517C20.3976 18.6391 20.4528 17.7288 20.341 16.8313ZM19.0372 21.9572C19.1616 21.7767 19.2103 21.5546 19.1727 21.3387C19.1352 21.1227 19.0144 20.93 18.8364 20.8021C18.6583 20.6742 18.4372 20.6213 18.2205 20.6546C18.0039 20.688 17.8089 20.805 17.6776 20.9805C17.4688 21.2693 17.237 21.5407 16.9844 21.792C16.8365 21.9507 16.756 22.1606 16.7598 22.3775C16.7636 22.5944 16.8515 22.8014 17.0049 22.9548C17.1583 23.1082 17.3652 23.196 17.5821 23.1998C17.799 23.2037 18.0089 23.1232 18.1676 22.9753C18.4958 22.6493 18.7849 22.3077 19.0372 21.9572ZM12.0917 7.05826C11.9546 6.88358 11.8926 6.66161 11.9192 6.44118C11.9458 6.22074 12.0588 6.01989 12.2335 5.88282C12.9183 5.34458 13.6675 4.89384 14.4638 4.54105C14.6668 4.45293 14.8965 4.44879 15.1026 4.52953C15.3086 4.61028 15.4743 4.76933 15.5635 4.97192C15.6526 5.17451 15.6579 5.40414 15.5781 5.61061C15.4984 5.81708 15.3402 5.98358 15.138 6.0737C14.4696 6.37025 13.8408 6.74899 13.266 7.20114C13.1795 7.26895 13.0804 7.31904 12.9745 7.34856C12.8686 7.37808 12.7579 7.38644 12.6487 7.37317C12.5396 7.3599 12.4341 7.32526 12.3383 7.27123C12.2426 7.2172 12.1595 7.14483 12.0917 7.05826ZM16.2733 4.76319C16.2472 4.54279 16.3096 4.32104 16.4469 4.14667C16.5843 3.97231 16.7852 3.8596 17.0056 3.83333C17.9027 3.72175 18.8127 3.77586 19.6902 3.99296C19.7969 4.01978 19.8972 4.06735 19.9855 4.13295C20.0737 4.19854 20.1482 4.28088 20.2046 4.37526C20.2611 4.46964 20.2984 4.57421 20.3144 4.683C20.3304 4.7918 20.3249 4.90268 20.298 5.00933C20.2712 5.11597 20.2236 5.21629 20.1581 5.30455C20.0925 5.39281 20.0101 5.46729 19.9157 5.52373C19.8214 5.58017 19.7168 5.61747 19.608 5.6335C19.4992 5.64953 19.3883 5.64397 19.2817 5.61714C18.6021 5.44954 17.8976 5.40829 17.2032 5.49547C17.0939 5.50856 16.9832 5.5 16.8773 5.47028C16.7714 5.44056 16.6724 5.39025 16.5859 5.32225C16.4995 5.25424 16.4273 5.16986 16.3734 5.07394C16.3196 4.97801 16.2852 4.87242 16.2722 4.76319M20.9639 5.32803C21.0935 5.14801 21.2893 5.0268 21.5082 4.99101C21.7271 4.95522 21.9513 5.00778 22.1315 5.13714C22.482 5.38942 22.8225 5.67854 23.1496 6.00561C23.2318 6.08225 23.2978 6.17468 23.3436 6.27738C23.3893 6.38008 23.4139 6.49094 23.4159 6.60335C23.4179 6.71576 23.3972 6.82742 23.3551 6.93167C23.313 7.03592 23.2503 7.13061 23.1708 7.21011C23.0913 7.28961 22.9966 7.35229 22.8924 7.3944C22.7881 7.4365 22.6765 7.45718 22.5641 7.4552C22.4517 7.45321 22.3408 7.42861 22.2381 7.38285C22.1354 7.33709 22.043 7.27112 21.9663 7.18886C21.7146 6.93651 21.4429 6.70505 21.1537 6.49677C21.0645 6.43249 20.9888 6.35127 20.931 6.25775C20.8732 6.16423 20.8343 6.06023 20.8167 5.9517C20.7991 5.84317 20.803 5.73224 20.8283 5.62522C20.8535 5.51821 20.8996 5.41722 20.9639 5.32803ZM12.1152 18.1172C12.288 17.9795 12.3993 17.7791 12.425 17.5596C12.4506 17.3402 12.3885 17.1194 12.2521 16.9456C12.1156 16.7718 11.916 16.6589 11.6968 16.6317C11.4775 16.6044 11.2563 16.6649 11.0815 16.8C10.5065 17.2518 9.87771 17.6305 9.20948 17.9275C9.10505 17.9691 9.01007 18.0314 8.93022 18.1105C8.85036 18.1896 8.78727 18.2841 8.7447 18.3881C8.70213 18.4922 8.68095 18.6037 8.68243 18.7162C8.68391 18.8286 8.70802 18.9396 8.75332 19.0425C8.79862 19.1454 8.86419 19.2381 8.9461 19.3151C9.02801 19.3921 9.12459 19.4518 9.23009 19.4907C9.33559 19.5296 9.44783 19.5468 9.56013 19.5414C9.67243 19.5359 9.78248 19.5079 9.88372 19.459C10.6804 19.1063 11.4301 18.6556 12.1152 18.1172ZM7.34306 20.1667C7.56363 20.1404 7.76469 20.0275 7.90201 19.8529C8.03934 19.6783 8.10169 19.4563 8.07534 19.2357C8.04899 19.0152 7.93611 18.8141 7.76151 18.6768C7.58692 18.5395 7.36493 18.4771 7.14437 18.5035C6.44999 18.5909 5.74546 18.55 5.06585 18.3829C4.95808 18.3524 4.84529 18.3438 4.73414 18.3577C4.623 18.3716 4.51576 18.4076 4.4188 18.4637C4.32183 18.5197 4.23709 18.5947 4.16961 18.6841C4.10213 18.7734 4.05327 18.8755 4.02593 18.9841C3.99859 19.0927 3.99332 19.2057 4.01043 19.3164C4.02755 19.4271 4.0667 19.5332 4.12558 19.6285C4.18445 19.7238 4.26184 19.8063 4.35318 19.8711C4.44451 19.936 4.54792 19.9818 4.6573 20.006C5.53514 20.2237 6.44552 20.2781 7.34306 20.1667ZM2.21711 18.8629C2.30623 18.9296 2.40776 18.9778 2.51576 19.0048C2.62375 19.0318 2.73604 19.037 2.84606 19.0201C2.95608 19.0031 3.06162 18.9644 3.1565 18.9062C3.25138 18.848 3.3337 18.7715 3.39865 18.6811C3.46359 18.5907 3.50986 18.4882 3.53474 18.3797C3.55962 18.2712 3.56261 18.1588 3.54354 18.0492C3.52447 17.9395 3.48372 17.8347 3.42368 17.741C3.36364 17.6473 3.2855 17.5665 3.19385 17.5033C2.90508 17.2949 2.63368 17.0634 2.38232 16.8112C2.22361 16.6633 2.0137 16.5828 1.79681 16.5866C1.57991 16.5904 1.37297 16.6783 1.21958 16.8317C1.06619 16.9851 0.978323 17.192 0.974496 17.4089C0.970669 17.6258 1.05118 17.8357 1.19906 17.9944C1.52502 18.3215 1.86548 18.6106 2.21711 18.8629Z" fill="#0F58BA"/>
<path d="M8.57079 12.5057C9.024 13.4389 9.70493 14.2259 10.608 14.6735C9.72279 14.8778 8.69916 14.9191 7.65209 14.7706C4.53767 14.3297 1.67442 12.317 1.67442 8.65116C1.67442 8.42912 1.58621 8.21617 1.42921 8.05917C1.2722 7.90216 1.05925 7.81395 0.837209 7.81395C0.615168 7.81395 0.40222 7.90216 0.245213 8.05917C0.0882058 8.21617 0 8.42912 0 8.65116C0 13.469 3.83553 15.9215 7.41767 16.4294C9.21712 16.6839 11.0679 16.4763 12.5057 15.7775C13.4746 15.3064 14.2873 14.5887 14.7248 13.6331C14.8833 14.4603 14.9057 15.3946 14.7706 16.3479C14.3297 19.4623 12.317 22.3256 8.65116 22.3256C8.42912 22.3256 8.21617 22.4138 8.05917 22.5708C7.90216 22.7278 7.81395 22.9408 7.81395 23.1628C7.81395 23.3848 7.90216 23.5978 8.05917 23.7548C8.21617 23.9118 8.42912 24 8.65116 24C13.469 24 15.9215 20.1645 16.4294 16.5823C16.6839 14.7829 16.4763 12.9321 15.7775 11.4943C15.3913 10.6995 14.8398 10.0097 14.1254 9.54642C14.864 9.46004 15.6108 9.47017 16.3468 9.57656C19.4634 10.0186 22.3256 12.0301 22.3256 15.6971C22.3256 15.9192 22.4138 16.1321 22.5708 16.2891C22.7278 16.4461 22.9408 16.5343 23.1628 16.5343C23.3848 16.5343 23.5978 16.4461 23.7548 16.2891C23.9118 16.1321 24 15.9192 24 15.6971C24 10.8793 20.1645 8.42679 16.5823 7.91888C14.7829 7.66437 12.9321 7.87088 11.4943 8.57079C10.7219 8.94586 10.0499 9.47721 9.58661 10.1615C9.4583 9.33019 9.45491 8.48439 9.57656 7.65209C10.0186 4.53767 12.0301 1.67442 15.6971 1.67442C15.9192 1.67442 16.1321 1.58621 16.2891 1.42921C16.4461 1.2722 16.5343 1.05925 16.5343 0.837209C16.5343 0.615168 16.4461 0.40222 16.2891 0.245213C16.1321 0.0882058 15.9192 3.30868e-09 15.6971 0C10.8793 0 8.42679 3.83553 7.91888 7.41767C7.66437 9.21712 7.87088 11.0679 8.57079 12.5057Z" fill="#0F58BA"/>
</svg>
