<svg width="24" height="29" viewBox="0 0 24 29" fill="none" xmlns="http://www.w3.org/2000/svg">
<path opacity="0.5" fill-rule="evenodd" clip-rule="evenodd" d="M0.0856926 17.403C0.139725 17.2793 0.217616 17.1674 0.314914 17.0738C0.412211 16.9801 0.527008 16.9066 0.652743 16.8573C0.778478 16.8081 0.912686 16.7841 1.0477 16.7867C1.18271 16.7894 1.31587 16.8186 1.43958 16.8727L8.29127 19.871C8.41761 19.9233 8.53226 20.0002 8.6285 20.0973C8.72475 20.1944 8.80065 20.3097 8.85177 20.4365C8.90288 20.5633 8.92819 20.6991 8.92619 20.8358C8.9242 20.9725 8.89495 21.1074 8.84017 21.2327C8.78538 21.3579 8.70614 21.471 8.60711 21.5652C8.50808 21.6595 8.39124 21.733 8.26342 21.7816C8.13561 21.8301 7.9994 21.8527 7.86277 21.8479C7.72613 21.8432 7.59182 21.8112 7.46769 21.7539L0.616013 18.7556C0.36642 18.6464 0.170363 18.4427 0.0709231 18.1891C-0.0285168 17.9355 -0.0232046 17.6527 0.0856926 17.403ZM23.8939 17.403C24.0029 17.6526 24.0084 17.9351 23.9092 18.1887C23.8101 18.4423 23.6143 18.6462 23.365 18.7556L1.43958 28.3479C1.19102 28.4507 0.912076 28.4519 0.662612 28.3514C0.413147 28.2508 0.213046 28.0565 0.105256 27.81C-0.00253396 27.5636 -0.0094233 27.2847 0.0860673 27.0333C0.181558 26.7818 0.371818 26.5778 0.616013 26.4651L22.5414 16.8727C22.7911 16.7638 23.0738 16.7585 23.3274 16.858C23.581 16.9574 23.7848 17.1535 23.8939 17.403ZM14.4742 23.697C14.5284 23.5734 14.6064 23.4616 14.7037 23.3681C14.8011 23.2746 14.9159 23.2012 15.0416 23.1521C15.1673 23.103 15.3015 23.0791 15.4364 23.0818C15.5714 23.0846 15.7045 23.1139 15.8281 23.168L23.365 26.4651C23.4913 26.5173 23.606 26.5942 23.7022 26.6913C23.7984 26.7884 23.8743 26.9038 23.9255 27.0306C23.9766 27.1574 24.0019 27.2931 23.9999 27.4298C23.9979 27.5665 23.9687 27.7015 23.9139 27.8267C23.8591 27.952 23.7798 28.065 23.6808 28.1593C23.5818 28.2536 23.4649 28.3271 23.3371 28.3756C23.2093 28.4242 23.0731 28.4467 22.9365 28.442C22.7998 28.4372 22.6655 28.4052 22.5414 28.3479L15.0045 25.0509C14.8808 24.9969 14.7689 24.919 14.6753 24.8217C14.5816 24.7244 14.5081 24.6096 14.4588 24.4838C14.4096 24.3581 14.3856 24.2239 14.3882 24.0889C14.3909 23.9539 14.4201 23.8207 14.4742 23.697Z" fill="#F24E1E"/>
<path fill-rule="evenodd" clip-rule="evenodd" d="M11.4417 17.8141C14.3646 17.8141 20.2119 16.1163 20.2119 9.32764C20.2119 5.17415 17.6781 2.16078 15.2786 0.362899C14.0495 -0.560708 12.4736 0.397157 12.4736 1.90316C12.4736 2.92132 12.1858 4.61231 11.3869 5.8648C10.4523 7.33106 8.90795 6.05802 8.66403 4.35195C8.5407 3.49686 7.59928 3.14331 6.86615 3.63526C5.42319 4.60135 3.76782 6.45404 3.76782 9.32764C3.76782 16.1163 8.88329 17.8141 11.4417 17.8141ZM16.3968 9.97855C16.6577 10.0571 16.8768 10.2361 17.0058 10.4761C17.1348 10.7161 17.1632 10.9975 17.0847 11.2584C16.7175 12.4863 15.1882 14.7309 11.9898 14.7309C11.7173 14.7309 11.4559 14.6226 11.2631 14.4299C11.0704 14.2371 10.9621 13.9757 10.9621 13.7031C10.9621 13.4305 11.0704 13.1691 11.2631 12.9764C11.4559 12.7837 11.7173 12.6754 11.9898 12.6754C14.0536 12.6754 14.9361 11.2667 15.1169 10.6665C15.1955 10.4056 15.3745 10.1865 15.6145 10.0575C15.8545 9.92854 16.1359 9.90013 16.3968 9.97855Z" fill="#F24E1E"/>
</svg>
