<svg width="31" height="24" viewBox="0 0 31 24" fill="none" xmlns="http://www.w3.org/2000/svg">
<path d="M2.45459 21.5454H28.091V9.54544H2.45459V21.5454ZM19.7387 16.6363C19.7387 16.4863 19.8614 16.3636 20.0114 16.3636H25.6364C25.7864 16.3636 25.9091 16.4863 25.9091 16.6363V19.0909C25.9091 19.2409 25.7864 19.3636 25.6364 19.3636H20.0114C19.8614 19.3636 19.7387 19.2409 19.7387 19.0909V16.6363ZM2.45459 2.45453H28.091V6.54544H2.45459V2.45453Z" fill="black" fill-opacity="0.15"/>
<path d="M20.0115 19.3636H25.6365C25.7865 19.3636 25.9092 19.2409 25.9092 19.0909V16.6364C25.9092 16.4864 25.7865 16.3636 25.6365 16.3636H20.0115C19.8615 16.3636 19.7388 16.4864 19.7388 16.6364V19.0909C19.7388 19.2409 19.8615 19.3636 20.0115 19.3636Z" fill="black"/>
<path d="M29.4545 0H1.09091C0.4875 0 0 0.4875 0 1.09091V22.9091C0 23.5125 0.4875 24 1.09091 24H29.4545C30.058 24 30.5455 23.5125 30.5455 22.9091V1.09091C30.5455 0.4875 30.058 0 29.4545 0ZM28.0909 21.5455H2.45455V9.54545H28.0909V21.5455ZM28.0909 6.54545H2.45455V2.45455H28.0909V6.54545Z" fill="black"/>
</svg>
