<svg width="24" height="24" viewBox="0 0 24 24" fill="none" xmlns="http://www.w3.org/2000/svg">
<path fill-rule="evenodd" clip-rule="evenodd" d="M1.45588 1.45588C0.994312 1.91739 0.628174 2.46531 0.378373 3.06834C0.128572 3.67136 0 4.31769 0 4.97041C0 5.62312 0.128572 6.26945 0.378373 6.87248C0.628174 7.4755 0.994312 8.02342 1.45588 8.48493L15.5152 22.543C16.4473 23.4751 17.7115 23.9988 19.0297 23.9988C19.6824 23.9988 20.3287 23.8702 20.9318 23.6205C21.5348 23.3707 22.0827 23.0046 22.5442 22.543C23.0058 22.0815 23.3719 21.5336 23.6217 20.9306C23.8714 20.3275 24 19.6812 24 19.0285C24 18.3758 23.8714 17.7295 23.6217 17.1265C23.3719 16.5234 23.0058 15.9755 22.5442 15.514L8.48373 1.45588C8.02222 0.994312 7.4743 0.628174 6.87127 0.378373C6.26825 0.128572 5.62192 0 4.96921 0C4.31649 0 3.67016 0.128572 3.06714 0.378373C2.46411 0.628174 1.91619 0.994312 1.45468 1.45588M8.81251 7.47701C8.72562 7.38534 8.62125 7.31201 8.50556 7.26134C8.38987 7.21067 8.2652 7.18369 8.13891 7.182C8.01262 7.1803 7.88727 7.20393 7.77026 7.25148C7.65325 7.29903 7.54696 7.36954 7.45765 7.45885C7.36834 7.54816 7.29783 7.65446 7.25028 7.77146C7.20273 7.88847 7.17911 8.01382 7.1808 8.14011C7.18249 8.2664 7.20947 8.39107 7.26014 8.50676C7.31081 8.62245 7.38414 8.72682 7.47581 8.81371C7.65323 8.99112 7.89385 9.09079 8.14476 9.09079C8.39566 9.09079 8.63629 8.99112 8.81371 8.81371C8.99112 8.63629 9.09079 8.39566 9.09079 8.14476C9.09079 7.89385 8.99112 7.65323 8.81371 7.47581M12.1542 8.58932C12.0665 8.50155 11.9623 8.43193 11.8476 8.38443C11.7329 8.33693 11.61 8.31248 11.4859 8.31248C11.3618 8.31248 11.2389 8.33693 11.1242 8.38443C11.0095 8.43193 10.9053 8.50155 10.8175 8.58932C10.7298 8.67709 10.6602 8.78129 10.6127 8.89596C10.5652 9.01064 10.5407 9.13355 10.5407 9.25767C10.5407 9.38179 10.5652 9.5047 10.6127 9.61938C10.6602 9.73405 10.7298 9.83825 10.8175 9.92602C10.9948 10.1033 11.2352 10.2029 11.4859 10.2029C11.7366 10.2029 11.977 10.1033 12.1542 9.92602C12.3315 9.74876 12.4311 9.50835 12.4311 9.25767C12.4311 9.00699 12.3315 8.76658 12.1542 8.58932ZM16.6083 13.0434C16.7 13.1303 16.7733 13.2346 16.824 13.3503C16.8746 13.466 16.9016 13.5907 16.9033 13.717C16.905 13.8433 16.8814 13.9686 16.8338 14.0856C16.7863 14.2026 16.7158 14.3089 16.6265 14.3982C16.5371 14.4875 16.4309 14.558 16.3138 14.6056C16.1968 14.6531 16.0715 14.6768 15.9452 14.6751C15.8189 14.6734 15.6942 14.6464 15.5785 14.5957C15.4629 14.5451 15.3585 14.4717 15.2716 14.3801C15.1021 14.2012 15.0091 13.9633 15.0124 13.717C15.0157 13.4706 15.1151 13.2353 15.2893 13.0611C15.4635 12.8868 15.6988 12.7875 15.9452 12.7842C16.1916 12.7809 16.4295 12.8739 16.6083 13.0434ZM17.723 17.7218C17.8108 17.634 17.8804 17.5298 17.9279 17.4152C17.9754 17.3005 17.9998 17.1776 17.9998 17.0535C17.9998 16.9293 17.9754 16.8064 17.9279 16.6918C17.8804 16.5771 17.8108 16.4729 17.723 16.3851C17.6352 16.2973 17.531 16.2277 17.4164 16.1802C17.3017 16.1327 17.1788 16.1083 17.0547 16.1083C16.9305 16.1083 16.8076 16.1327 16.693 16.1802C16.5783 16.2277 16.4741 16.2973 16.3863 16.3851C16.2091 16.5624 16.1095 16.8028 16.1095 17.0535C16.1095 17.3041 16.2091 17.5446 16.3863 17.7218C16.5636 17.8991 16.804 17.9986 17.0547 17.9986C17.3053 17.9986 17.5458 17.8991 17.723 17.7218ZM13.2678 13.2666C13.445 13.0895 13.5447 12.8492 13.5448 12.5986C13.5449 12.3481 13.4455 12.1077 13.2684 11.9305C13.0913 11.7532 12.851 11.6536 12.6004 11.6534C12.3499 11.6533 12.1095 11.7528 11.9323 11.9299C11.8445 12.0176 11.7749 12.1217 11.7273 12.2363C11.6798 12.3509 11.6553 12.4737 11.6552 12.5978C11.6551 12.8484 11.7546 13.0887 11.9317 13.266C12.1088 13.4432 12.349 13.5429 12.5996 13.543C12.8502 13.5431 13.0905 13.4437 13.2678 13.2666ZM14.3813 15.2704C14.4729 15.3573 14.5463 15.4617 14.5969 15.5773C14.6476 15.693 14.6746 15.8177 14.6763 15.944C14.678 16.0703 14.6543 16.1956 14.6068 16.3126C14.5592 16.4297 14.4887 16.5359 14.3994 16.6253C14.3101 16.7146 14.2038 16.7851 14.0868 16.8326C13.9698 16.8802 13.8445 16.9038 13.7182 16.9021C13.5919 16.9004 13.4672 16.8734 13.3515 16.8228C13.2358 16.7721 13.1315 16.6988 13.0446 16.6071C12.8791 16.4276 12.7894 16.1909 12.7945 15.9468C12.7995 15.7027 12.8987 15.4699 13.0715 15.2973C13.2442 15.1247 13.4771 15.0257 13.7212 15.0209C13.9653 15.0161 14.2019 15.1059 14.3813 15.2716M8.59172 10.8187C8.76898 10.6415 9.00939 10.5419 9.26007 10.5419C9.51075 10.5419 9.75116 10.6415 9.92842 10.8187C10.1057 10.996 10.2053 11.2364 10.2053 11.4871C10.2053 11.7378 10.1057 11.9782 9.92842 12.1554C9.75116 12.3327 9.51075 12.4323 9.26007 12.4323C9.00939 12.4323 8.76898 12.3327 8.59172 12.1554C8.41447 11.9782 8.31488 11.7378 8.31488 11.4871C8.31488 11.2364 8.41447 10.996 8.59172 10.8187Z" fill="#00A3FF"/>
<path opacity="0.5" d="M22.5429 8.48488C23.475 7.55277 23.9987 6.28855 23.9987 4.97035C23.9987 3.65215 23.475 2.38794 22.5429 1.45583C21.6108 0.523715 20.3466 6.1045e-05 19.0284 6.10352e-05C17.7102 6.10253e-05 16.446 0.523715 15.5139 1.45583L11.9993 4.97155L19.0284 11.9994L22.5429 8.48488ZM11.9993 19.0285L4.97029 11.9994L1.45576 15.5139C0.523654 16.446 -9.82138e-09 17.7103 0 19.0285C9.82138e-09 20.3467 0.523654 21.6109 1.45576 22.543C2.38787 23.4751 3.65209 23.9987 4.97029 23.9987C6.28849 23.9987 7.55271 23.4751 8.48482 22.543L11.9993 19.0285Z" fill="#00A3FF"/>
</svg>
