<svg width="24" height="25" viewBox="0 0 24 25" fill="none" xmlns="http://www.w3.org/2000/svg">
<path opacity="0.2" d="M18.2405 15.3608L16.4872 23.2498C16.4397 23.463 16.321 23.6535 16.1506 23.7901C15.9802 23.9267 15.7684 24.0011 15.55 24.001H7.49053C7.27217 24.0011 7.06031 23.9267 6.88992 23.7901C6.71954 23.6535 6.6008 23.463 6.5533 23.2498L4.80005 15.3608H18.2405Z" fill="#4ECB71"/>
<path d="M20.1605 14.4008H10.9562L11.2382 14.1188L13.6455 11.7115C14.6178 12.2011 15.6891 12.4622 16.7776 12.4747C17.8733 12.4776 18.9485 12.1778 19.8845 11.6083C22.731 9.88502 24.2562 5.8961 23.9646 0.937545C23.9509 0.70268 23.8514 0.481028 23.6851 0.31467C23.5187 0.148313 23.2971 0.0488327 23.0622 0.035117C18.1037 -0.255292 14.1147 1.26876 12.3903 4.11524C11.2682 5.9693 11.2394 8.20857 12.2871 10.3554L10.5602 12.0823L9.09497 10.617C9.815 9.027 9.7634 7.37694 8.92817 5.9993C7.62373 3.84043 4.63204 2.6884 0.92752 2.90681C0.693062 2.92078 0.471859 3.02021 0.305778 3.18629C0.139697 3.35237 0.0402621 3.57358 0.0262919 3.80803C-0.192115 7.51255 0.959921 10.503 3.11999 11.8087C3.84265 12.2499 4.67334 12.4825 5.52006 12.4807C6.28822 12.4731 7.0459 12.3017 7.74253 11.9779L9.20298 13.4407L8.24295 14.4008H2.87998C2.62536 14.4008 2.38118 14.5019 2.20114 14.6819C2.0211 14.862 1.91995 15.1062 1.91995 15.3608C1.91995 15.6154 2.0211 15.8596 2.20114 16.0396C2.38118 16.2197 2.62536 16.3208 2.87998 16.3208H4.03082L5.61607 23.4574C5.70858 23.8851 5.94534 24.2679 6.28664 24.5417C6.62793 24.8155 7.053 24.9635 7.49052 24.9611H15.5512C15.9886 24.9631 16.4134 24.8149 16.7546 24.5411C17.0958 24.2674 17.3327 23.8849 17.4256 23.4574L19.0109 16.3208H20.1605C20.4151 16.3208 20.6593 16.2197 20.8394 16.0396C21.0194 15.8596 21.1205 15.6154 21.1205 15.3608C21.1205 15.1062 21.0194 14.862 20.8394 14.6819C20.6593 14.5019 20.4151 14.4008 20.1605 14.4008ZM14.0403 5.11007C15.2956 3.03881 18.2681 1.86997 22.0806 1.92158C22.1298 5.73889 20.9633 8.71139 18.8921 9.96183C17.5108 10.8019 15.844 10.7467 14.1783 9.82022C13.2507 8.16057 13.2003 6.49132 14.0403 5.11007ZM7.21332 10.0938C6.10928 10.6842 5.01605 10.7118 4.11362 10.1658C2.73358 9.32941 1.93795 7.35774 1.91995 4.80047C4.47723 4.81847 6.45009 5.61409 7.28532 6.99413C7.83253 7.89656 7.80013 8.9898 7.21332 10.0938ZM15.5512 23.041H7.49052L6.00008 16.3208H17.0404L15.5512 23.041Z" fill="#4ECB71"/>
</svg>
