<svg width="217" height="109" viewBox="0 0 217 109" fill="none" xmlns="http://www.w3.org/2000/svg">
<path d="M80 54.5C80 60.1757 77.4714 65.6188 72.9706 69.6321C68.4697 73.6454 62.3652 75.9 56 75.9C49.6348 75.9 43.5303 73.6454 39.0294 69.6321C34.5286 65.6188 32 60.1757 32 54.5V33.1H56C62.3652 33.1 68.4697 35.3547 72.9706 39.3679C77.4714 43.3812 80 48.8244 80 54.5Z" stroke="black" stroke-width="24" stroke-linecap="round" stroke-linejoin="round"/>
<path d="M117.48 85H116.4C114.56 85 112.72 84.8 110.88 84.4C109.12 83.92 107.52 83.16 106.08 82.12C104.72 81 103.6 79.56 102.72 77.8C101.84 76.04 101.4 73.88 101.4 71.32V38.2C101.4 35.32 101.88 32.96 102.84 31.12C103.8 29.28 105.04 27.84 106.56 26.8C108.08 25.76 109.8 25.04 111.72 24.64C113.64 24.24 115.56 24.04 117.48 24.04V85ZM144 35.92C144 37.12 143.8 38.36 143.4 39.64C143.08 40.92 142.48 42.08 141.6 43.12C140.72 44.16 139.56 45 138.12 45.64C136.76 46.28 135.04 46.6 132.96 46.6C131.28 46.6 129.84 46.44 128.64 46.12V42.04C128.64 40.28 128.32 38.8 127.68 37.6C127.04 36.4 125.8 35.72 123.96 35.56C123.08 35.56 122.32 35.72 121.68 36.04C121.12 36.28 120.56 36.6 120 37C119.44 35.88 119.16 34.6 119.16 33.16C119.16 30.76 120.2 28.64 122.28 26.8C124.36 24.96 127.24 24.04 130.92 24.04H131.76C133.12 24.12 134.52 24.4 135.96 24.88C137.4 25.36 138.72 26.08 139.92 27.04C141.12 28 142.08 29.24 142.8 30.76C143.6 32.2 144 33.92 144 35.92ZM144 73.36C144 75.28 143.6 76.96 142.8 78.4C142.08 79.84 141.12 81.04 139.92 82C138.72 82.96 137.4 83.68 135.96 84.16C134.52 84.64 133.12 84.92 131.76 85H130.92C127.24 85 124.36 84.08 122.28 82.24C120.2 80.4 119.16 78.28 119.16 75.88C119.16 74.44 119.44 73.16 120 72.04C121.04 73 122.24 73.48 123.6 73.48C125.6 73.32 126.92 72.64 127.56 71.44C128.28 70.24 128.64 68.76 128.64 67V62.92C129.84 62.6 131.28 62.44 132.96 62.44C135.04 62.44 136.76 62.76 138.12 63.4C139.56 64.04 140.72 64.88 141.6 65.92C142.48 66.96 143.08 68.16 143.4 69.52C143.8 70.8 144 72.08 144 73.36ZM153.666 24.04H154.986C159.146 24.04 162.626 25.16 165.426 27.4C168.306 29.64 169.746 33.2 169.746 38.08V85H169.026C167.186 85 165.346 84.76 163.506 84.28C161.746 83.8 160.106 83.04 158.586 82C157.146 80.88 155.946 79.48 154.986 77.8C154.106 76.04 153.666 73.88 153.666 71.32V24.04ZM193.386 34.6C193.386 36.84 192.946 38.64 192.066 40C191.186 41.36 190.106 42.44 188.826 43.24C187.626 43.96 186.306 44.44 184.866 44.68C183.426 44.92 182.186 45.04 181.146 45.04C180.026 45.04 179.066 44.96 178.266 44.8V40.48C178.266 38.64 177.946 37.48 177.306 37C176.746 36.52 176.026 36.28 175.146 36.28C174.346 36.28 173.706 36.44 173.226 36.76C172.826 37.08 172.346 37.56 171.786 38.2C171.546 37.56 171.386 36.92 171.306 36.28C171.306 35.56 171.306 34.88 171.306 34.24C171.306 33.2 171.466 32.08 171.786 30.88C172.186 29.68 172.786 28.6 173.586 27.64C174.466 26.6 175.586 25.76 176.946 25.12C178.306 24.4 180.026 24.04 182.106 24.04C185.946 24.04 188.786 25.08 190.626 27.16C192.466 29.16 193.386 31.64 193.386 34.6Z" fill="#9F9F9F"/>
</svg>
