<svg width="480" height="975" viewBox="0 0 480 975" fill="none" xmlns="http://www.w3.org/2000/svg">
<path d="M0.833006 191.23L0.833008 221.476C0.833008 222.291 0.870718 223.038 0.933675 223.589C0.964774 223.861 1.00398 224.103 1.05351 224.286C1.07721 224.373 1.11079 224.477 1.16216 224.569C1.18771 224.614 1.23093 224.682 1.29967 224.743C1.37144 224.806 1.49598 224.884 1.66565 224.884L11.667 224.884C11.8367 224.884 11.9612 224.806 12.033 224.743C12.1018 224.682 12.145 224.614 12.1705 224.569C12.2219 224.477 12.2555 224.373 12.2792 224.286C12.3287 224.103 12.3679 223.861 12.399 223.589C12.462 223.038 12.4997 222.291 12.4997 221.476L12.4997 191.23C12.4997 190.414 12.462 189.668 12.399 189.117C12.3679 188.845 12.3287 188.603 12.2792 188.42C12.2555 188.333 12.2219 188.229 12.1705 188.137C12.145 188.092 12.1018 188.024 12.033 187.963C11.9612 187.9 11.8367 187.822 11.667 187.822L1.66565 187.822C1.49598 187.822 1.37144 187.9 1.29967 187.963C1.23092 188.024 1.18771 188.092 1.16216 188.137C1.11079 188.229 1.07721 188.333 1.05351 188.42C1.00398 188.603 0.964773 188.845 0.933674 189.117C0.870716 189.668 0.833006 190.414 0.833006 191.23Z" fill="url(#paint0_linear_202_717)" stroke="url(#paint1_linear_202_717)"/>
<path d="M0.833005 265.034L0.833008 326.644C0.833008 328.287 0.870354 329.777 0.931223 330.862C0.961553 331.402 0.998224 331.85 1.04052 332.169C1.06123 332.325 1.08561 332.468 1.11643 332.581C1.13077 332.633 1.1542 332.708 1.19407 332.78C1.2138 332.816 1.251 332.876 1.31348 332.932C1.37878 332.991 1.49864 333.069 1.66565 333.069L11.667 333.069C11.834 333.069 11.9539 332.991 12.0192 332.932C12.0817 332.876 12.1189 332.816 12.1386 332.78C12.1785 332.708 12.2019 332.633 12.2163 332.581C12.2471 332.468 12.2715 332.325 12.2922 332.169C12.3345 331.85 12.3711 331.402 12.4015 330.862C12.4623 329.777 12.4997 328.287 12.4997 326.644L12.4997 265.034C12.4997 263.392 12.4623 261.901 12.4015 260.817C12.3711 260.277 12.3345 259.828 12.2922 259.509C12.2715 259.353 12.2471 259.21 12.2162 259.098C12.2019 259.045 12.1785 258.97 12.1386 258.898C12.1189 258.863 12.0817 258.803 12.0192 258.746C11.9539 258.687 11.834 258.61 11.667 258.61L1.66565 258.61C1.49864 258.61 1.37878 258.687 1.31348 258.746C1.251 258.803 1.21379 258.863 1.19406 258.898C1.15419 258.97 1.13077 259.045 1.11643 259.098C1.08561 259.21 1.06123 259.353 1.04052 259.509C0.998221 259.828 0.96155 260.277 0.931219 260.817C0.870351 261.901 0.833005 263.392 0.833005 265.034Z" fill="url(#paint2_linear_202_717)" stroke="url(#paint3_linear_202_717)"/>
<path d="M0.833005 359.863L0.833008 421.473C0.833008 423.116 0.870354 424.606 0.931223 425.69C0.961553 426.231 0.998224 426.679 1.04052 426.998C1.06123 427.154 1.08561 427.297 1.11643 427.409C1.13077 427.462 1.1542 427.537 1.19407 427.609C1.2138 427.644 1.251 427.704 1.31348 427.761C1.37878 427.82 1.49864 427.897 1.66565 427.897L11.667 427.897C11.834 427.897 11.9539 427.82 12.0192 427.761C12.0817 427.704 12.1189 427.644 12.1386 427.609C12.1785 427.537 12.2019 427.462 12.2163 427.409C12.2471 427.297 12.2715 427.154 12.2922 426.998C12.3345 426.679 12.3711 426.231 12.4015 425.69C12.4623 424.606 12.4997 423.116 12.4997 421.473L12.4997 359.863C12.4997 358.221 12.4623 356.73 12.4015 355.646C12.3711 355.105 12.3345 354.657 12.2922 354.338C12.2715 354.182 12.2471 354.039 12.2162 353.927C12.2019 353.874 12.1785 353.799 12.1386 353.727C12.1189 353.692 12.0817 353.632 12.0192 353.575C11.9539 353.516 11.834 353.439 11.667 353.439L1.66565 353.439C1.49864 353.439 1.37878 353.516 1.31348 353.575C1.251 353.632 1.21379 353.692 1.19406 353.727C1.15419 353.799 1.13077 353.874 1.11643 353.927C1.08561 354.039 1.06123 354.182 1.04052 354.338C0.998221 354.657 0.96155 355.105 0.931219 355.646C0.870351 356.73 0.833005 358.221 0.833005 359.863Z" fill="url(#paint4_linear_202_717)" stroke="url(#paint5_linear_202_717)"/>
<path d="M466.166 320.354L466.166 415.571C466.166 418.108 466.179 420.399 466.2 422.056C466.21 422.885 466.223 423.557 466.237 424.024C466.244 424.256 466.252 424.442 466.26 424.572C466.264 424.635 466.268 424.694 466.274 424.741C466.277 424.762 466.282 424.798 466.291 424.836C466.295 424.851 466.307 424.897 466.333 424.948C466.345 424.973 466.374 425.026 466.428 425.08C466.484 425.135 466.604 425.226 466.782 425.226L478.55 425.226C478.728 425.226 478.848 425.135 478.904 425.08C478.958 425.026 478.987 424.973 478.999 424.948C479.025 424.897 479.037 424.851 479.041 424.836C479.05 424.798 479.055 424.762 479.058 424.741C479.064 424.694 479.068 424.635 479.072 424.572C479.08 424.442 479.088 424.256 479.095 424.024C479.109 423.558 479.122 422.885 479.132 422.057C479.153 420.399 479.166 418.108 479.166 415.571L479.166 320.354C479.166 317.818 479.153 315.526 479.132 313.869C479.122 313.04 479.109 312.368 479.095 311.901C479.088 311.669 479.08 311.483 479.072 311.353C479.068 311.29 479.064 311.231 479.058 311.183C479.055 311.163 479.05 311.127 479.041 311.088C479.037 311.073 479.025 311.028 478.999 310.977C478.987 310.952 478.958 310.898 478.904 310.845C478.848 310.789 478.728 310.699 478.55 310.699L466.782 310.699C466.604 310.699 466.484 310.789 466.428 310.844C466.374 310.898 466.345 310.952 466.333 310.977C466.307 311.028 466.295 311.073 466.291 311.088C466.282 311.127 466.277 311.163 466.274 311.183C466.268 311.231 466.264 311.29 466.26 311.353C466.252 311.483 466.244 311.669 466.237 311.901C466.223 312.367 466.21 313.04 466.2 313.868C466.179 315.526 466.166 317.817 466.166 320.354Z" fill="url(#paint6_linear_202_717)" stroke="url(#paint7_linear_202_717)"/>
<path d="M393.439 1.33569H86.5604C41.4867 1.33569 4.94727 37.9377 4.94727 83.0886V891.911C4.94727 937.062 41.4867 973.664 86.5604 973.664H393.439C438.512 973.664 475.052 937.062 475.052 891.911V83.0886C475.052 37.9377 438.512 1.33569 393.439 1.33569Z" fill="url(#paint8_angular_202_717)" stroke="#3A3A3A" stroke-width="0.999999" stroke-linecap="round" stroke-linejoin="round"/>
<path d="M392.056 7.05664H87.9429C46.0176 7.05664 12.0303 41.1021 12.0303 83.0992V891.901C12.0303 933.898 46.0176 967.943 87.9429 967.943H392.056C433.981 967.943 467.968 933.898 467.968 891.901V83.0992C467.968 41.1021 433.981 7.05664 392.056 7.05664Z" fill="black"/>
<path d="M392.056 7.05664H87.9429C46.0176 7.05664 12.0303 41.1021 12.0303 83.0992V891.901C12.0303 933.898 46.0176 967.943 87.9429 967.943H392.056C433.981 967.943 467.968 933.898 467.968 891.901V83.0992C467.968 41.1021 433.981 7.05664 392.056 7.05664Z" fill="black"/>
<path d="M376.465 1.33569H370.12V7.05665H376.465V1.33569Z" fill="#7D7E7F"/>
<path d="M475.052 109.829V103.473H467.968V109.829H475.052Z" fill="#7D7E7F"/>
<path d="M4.94727 109.829V103.473H12.0305V109.829H4.94727Z" fill="#7D7E7F"/>
<path d="M103.534 973.665H109.879V967.944H103.534V973.665Z" fill="#7D7E7F"/>
<path d="M4.94727 865.171V871.527H12.0305V865.171H4.94727Z" fill="#7D7E7F"/>
<path d="M475.052 865.171V871.527H467.968V865.171H475.052Z" fill="#7D7E7F"/>
<mask id="mask0_202_717" style="mask-type:alpha" maskUnits="userSpaceOnUse" x="25" y="21" width="430" height="932">
<path d="M397.06 21H82.9403C50.9407 21 25 46.9819 25 79.0322V894.968C25 927.018 50.9407 953 82.9403 953H397.06C429.059 953 455 927.018 455 894.968V79.0322C455 46.9819 429.059 21 397.06 21Z" fill="white"/>
</mask>
<g mask="url(#mask0_202_717)">
<rect width="430" height="932" transform="translate(25 21)" fill="white"/>
<path d="M83.9688 59.5H85.9844V48.2266H83.9766L81.0312 50.2969V52.1953L83.8359 50.2109H83.9688V59.5ZM93.25 59.7812C95.9297 59.7812 97.5547 57.5078 97.5547 53.8672V53.8516C97.5547 50.2109 95.9297 47.9453 93.25 47.9453C90.5703 47.9453 88.9609 50.2109 88.9609 53.8516V53.8672C88.9609 57.5078 90.5703 59.7812 93.25 59.7812ZM93.25 58.1484C91.8125 58.1484 90.9922 56.5391 90.9922 53.8672V53.8516C90.9922 51.1797 91.8125 49.5859 93.25 49.5859C94.6875 49.5859 95.5234 51.1797 95.5234 53.8516V53.8672C95.5234 56.5391 94.6875 58.1484 93.25 58.1484ZM101.133 52.1953C101.852 52.1953 102.375 51.6484 102.375 50.9609C102.375 50.2656 101.852 49.7266 101.133 49.7266C100.422 49.7266 99.8906 50.2656 99.8906 50.9609C99.8906 51.6484 100.422 52.1953 101.133 52.1953ZM101.133 57.9922C101.852 57.9922 102.375 57.4531 102.375 56.7578C102.375 56.0625 101.852 55.5234 101.133 55.5234C100.422 55.5234 99.8906 56.0625 99.8906 56.7578C99.8906 57.4531 100.422 57.9922 101.133 57.9922ZM109 59.7812C111.68 59.7812 113.305 57.5078 113.305 53.8672V53.8516C113.305 50.2109 111.68 47.9453 109 47.9453C106.32 47.9453 104.711 50.2109 104.711 53.8516V53.8672C104.711 57.5078 106.32 59.7812 109 59.7812ZM109 58.1484C107.562 58.1484 106.742 56.5391 106.742 53.8672V53.8516C106.742 51.1797 107.562 49.5859 109 49.5859C110.438 49.5859 111.273 51.1797 111.273 53.8516V53.8672C111.273 56.5391 110.438 58.1484 109 58.1484ZM119.641 59.7812C122.32 59.7812 123.945 57.5078 123.945 53.8672V53.8516C123.945 50.2109 122.32 47.9453 119.641 47.9453C116.961 47.9453 115.352 50.2109 115.352 53.8516V53.8672C115.352 57.5078 116.961 59.7812 119.641 59.7812ZM119.641 58.1484C118.203 58.1484 117.383 56.5391 117.383 53.8672V53.8516C117.383 51.1797 118.203 49.5859 119.641 49.5859C121.078 49.5859 121.914 51.1797 121.914 53.8516V53.8672C121.914 56.5391 121.078 58.1484 119.641 58.1484Z" fill="#111111"/>
<g clip-path="url(#clip0_202_717)">
<path fill-rule="evenodd" clip-rule="evenodd" d="M359.149 48C358.597 48 358.149 48.4477 358.149 49V59C358.149 59.5523 358.597 60 359.149 60H360.5C361.052 60 361.5 59.5523 361.5 59V49C361.5 48.4477 361.052 48 360.5 48H359.149ZM353.6 50.4C353.047 50.4 352.6 50.8477 352.6 51.4V59C352.6 59.5523 353.047 60 353.6 60H354.95C355.503 60 355.95 59.5523 355.95 59V51.4C355.95 50.8477 355.503 50.4 354.95 50.4H353.6ZM347.05 54C347.05 53.4477 347.498 53 348.05 53H349.401C349.953 53 350.401 53.4477 350.401 54V59C350.401 59.5523 349.953 60 349.401 60H348.05C347.498 60 347.05 59.5523 347.05 59V54ZM342.5 55.4C341.948 55.4 341.5 55.8477 341.5 56.4V59C341.5 59.5523 341.948 60 342.5 60H343.851C344.403 60 344.851 59.5523 344.851 59V56.4C344.851 55.8477 344.403 55.4 343.851 55.4H342.5Z" fill="#111111"/>
</g>
<path d="M373.509 56.3274C374.227 56.3274 374.925 56.529 375.539 56.9136L375.788 57.0693C375.977 57.1875 376.011 57.4639 375.856 57.6289L373.729 59.8955C373.598 60.0347 373.387 60.0347 373.256 59.8955L371.143 57.6435C370.989 57.4792 371.021 57.2042 371.208 57.0852L371.454 56.9287C372.075 56.5344 372.781 56.3274 373.509 56.3274Z" fill="#111111"/>
<path d="M373.509 52.1638C375.295 52.1638 377.01 52.7971 378.407 53.9699L378.604 54.1356C378.762 54.2678 378.776 54.5168 378.634 54.6678L377.364 56.021C377.247 56.1461 377.061 56.1605 376.928 56.0547L376.773 55.9318C375.83 55.1823 374.692 54.7802 373.509 54.7802C372.318 54.7802 371.174 55.1873 370.227 55.9454L370.072 56.0694C369.939 56.1761 369.753 56.162 369.635 56.0365L368.366 54.6838C368.224 54.5332 368.238 54.2848 368.394 54.1524L368.591 53.9865C369.991 52.8033 371.714 52.1638 373.509 52.1638Z" fill="#111111"/>
<path d="M373.509 48C376.343 48 379.054 49.0687 381.2 51.0275L381.383 51.1947C381.531 51.3299 381.54 51.5707 381.402 51.7176L380.137 53.0663C380.014 53.197 379.818 53.2062 379.685 53.0874L379.528 52.9474C377.839 51.4377 375.722 50.6164 373.509 50.6164C371.288 50.6164 369.164 51.4433 367.472 52.9625L367.315 53.1033C367.183 53.2225 366.986 53.2136 366.863 53.0827L365.598 51.7341C365.46 51.5874 365.469 51.347 365.616 51.2118L365.799 51.0445C367.947 49.0751 370.666 48 373.509 48Z" fill="#111111"/>
<rect x="387.536" y="49.1538" width="21.3818" height="9.69231" rx="1.33" fill="#111111"/>
<path opacity="0.4" fill-rule="evenodd" clip-rule="evenodd" d="M391.1 48H405.355C406.351 48 407.038 48.0008 407.572 48.0444C408.094 48.087 408.38 48.1655 408.59 48.2725C409.06 48.5122 409.442 48.8946 409.682 49.365C409.789 49.5749 409.868 49.8608 409.91 50.3826C409.954 50.9161 409.955 51.6034 409.955 52.6V55.4C409.955 56.3966 409.954 57.0839 409.91 57.6174C409.868 58.1392 409.789 58.4251 409.682 58.635C409.442 59.1054 409.06 59.4878 408.59 59.7275C408.38 59.8345 408.094 59.913 407.572 59.9556C407.038 59.9992 406.351 60 405.355 60H391.1C390.103 60 389.416 59.9992 388.883 59.9556C388.361 59.913 388.075 59.8345 387.865 59.7275C387.395 59.4878 387.012 59.1054 386.772 58.635C386.666 58.4251 386.587 58.1392 386.544 57.6174C386.501 57.0839 386.5 56.3966 386.5 55.4V52.6C386.5 51.6034 386.501 50.9161 386.544 50.3826C386.587 49.8608 386.666 49.5749 386.772 49.365C387.012 48.8946 387.395 48.5122 387.865 48.2725C388.075 48.1655 388.361 48.087 388.883 48.0444C389.416 48.0008 390.103 48 391.1 48ZM385.5 52.6C385.5 50.6398 385.5 49.6597 385.881 48.911C386.217 48.2525 386.752 47.717 387.411 47.3815C388.16 47 389.14 47 391.1 47H405.355C407.315 47 408.295 47 409.044 47.3815C409.702 47.717 410.238 48.2525 410.573 48.911C410.955 49.6597 410.955 50.6398 410.955 52.6V55.4C410.955 57.3602 410.955 58.3403 410.573 59.089C410.238 59.7475 409.702 60.283 409.044 60.6185C408.295 61 407.315 61 405.355 61H391.1C389.14 61 388.16 61 387.411 60.6185C386.752 60.283 386.217 59.7475 385.881 59.089C385.5 58.3403 385.5 57.3602 385.5 55.4V52.6ZM411.973 56.1538C412.816 55.9385 413.5 55.1895 413.5 54C413.5 52.8105 412.816 52.0615 411.973 51.8462L411.973 54L411.973 56.1538Z" fill="#111111"/>
</g>
<path d="M188.271 7.0564C193.569 7.0564 193.432 8.14888 194.529 9.38851C195.329 10.2926 196.36 10.5807 198.389 10.5807H281.61C283.639 10.5807 284.667 10.2926 285.467 9.38851C286.564 8.14888 286.429 7.0564 291.727 7.0564H188.271Z" fill="url(#paint9_linear_202_717)"/>
<path d="M288.12 33.8391H191.879C180.607 33.8391 171.47 42.9923 171.47 54.2834C171.47 65.5745 180.607 74.7277 191.879 74.7277H288.12C299.391 74.7277 308.529 65.5745 308.529 54.2834C308.529 42.9923 299.391 33.8391 288.12 33.8391Z" fill="black"/>
<path d="M289.014 62.402C293.49 62.402 297.119 58.7669 297.119 54.2828C297.119 49.7987 293.49 46.1636 289.014 46.1636C284.537 46.1636 280.908 49.7987 280.908 54.2828C280.908 58.7669 284.537 62.402 289.014 62.402Z" fill="#0A0A0A"/>
<path d="M289.013 59.2908C291.774 59.2908 294.013 57.0486 294.013 54.2827C294.013 51.5168 291.774 49.2747 289.013 49.2747C286.252 49.2747 284.014 51.5168 284.014 54.2827C284.014 57.0486 286.252 59.2908 289.013 59.2908Z" fill="#0A0D13"/>
<path d="M289.013 58.0985C291.117 58.0985 292.823 56.3902 292.823 54.2828C292.823 52.1754 291.117 50.467 289.013 50.467C286.91 50.467 285.204 52.1754 285.204 54.2828C285.204 56.3902 286.91 58.0985 289.013 58.0985Z" fill="#091427"/>
<g filter="url(#filter0_f_202_717)">
<path fill-rule="evenodd" clip-rule="evenodd" d="M286.391 51.73C285.939 51.7776 285.297 52.4682 285.25 53.8257C285.202 55.1831 285.797 55.9214 286.129 55.9214C286.462 55.9214 287.841 53.9447 286.391 51.73Z" fill="#235A91" fill-opacity="0.556075"/>
</g>
<g filter="url(#filter1_f_202_717)">
<path fill-rule="evenodd" clip-rule="evenodd" d="M289.635 51.2546C288.922 51.4742 288.785 52.6272 288.813 53.286C288.84 53.9448 289.772 55.6743 290.896 55.29C292.019 54.9056 292.211 53.4782 291.745 52.5174C291.279 51.5566 290.43 50.8703 289.635 51.2546Z" fill="#235A91" fill-opacity="0.556075"/>
</g>
<defs>
<filter id="filter0_f_202_717" x="285.031" y="51.5143" width="2.22623" height="4.62272" filterUnits="userSpaceOnUse" color-interpolation-filters="sRGB">
<feFlood flood-opacity="0" result="BackgroundImageFix"/>
<feBlend mode="normal" in="SourceGraphic" in2="BackgroundImageFix" result="shape"/>
<feGaussianBlur stdDeviation="0.107828" result="effect1_foregroundBlur_202_717"/>
</filter>
<filter id="filter1_f_202_717" x="288.594" y="50.9303" width="3.60319" height="4.63029" filterUnits="userSpaceOnUse" color-interpolation-filters="sRGB">
<feFlood flood-opacity="0" result="BackgroundImageFix"/>
<feBlend mode="normal" in="SourceGraphic" in2="BackgroundImageFix" result="shape"/>
<feGaussianBlur stdDeviation="0.107828" result="effect1_foregroundBlur_202_717"/>
</filter>
<linearGradient id="paint0_linear_202_717" x1="6.66634" y1="224.384" x2="6.66634" y2="188.322" gradientUnits="userSpaceOnUse">
<stop stop-color="#7E7E7C"/>
<stop offset="0.066468" stop-color="#80807E"/>
<stop offset="0.0824877" stop-color="#E7E7E7"/>
<stop offset="0.306859" stop-color="#A1A19F"/>
<stop offset="0.343067" stop-color="#706F6B"/>
<stop offset="0.659198" stop-color="#2D2C29"/>
<stop offset="0.743629" stop-color="#63625D"/>
<stop offset="0.912967" stop-color="#76756E"/>
<stop offset="1" stop-color="#373631"/>
</linearGradient>
<linearGradient id="paint1_linear_202_717" x1="1.33301" y1="206.353" x2="11.9997" y2="206.353" gradientUnits="userSpaceOnUse">
<stop stop-color="#474643"/>
<stop offset="1" stop-color="#5E5E5E"/>
</linearGradient>
<linearGradient id="paint2_linear_202_717" x1="6.66634" y1="332.569" x2="6.66634" y2="259.11" gradientUnits="userSpaceOnUse">
<stop stop-color="#7E7E7C"/>
<stop offset="0.066468" stop-color="#80807E"/>
<stop offset="0.0824877" stop-color="#E7E7E7"/>
<stop offset="0.306859" stop-color="#A1A19F"/>
<stop offset="0.343067" stop-color="#706F6B"/>
<stop offset="0.659198" stop-color="#2D2C29"/>
<stop offset="0.743629" stop-color="#63625D"/>
<stop offset="0.912967" stop-color="#76756E"/>
<stop offset="1" stop-color="#373631"/>
</linearGradient>
<linearGradient id="paint3_linear_202_717" x1="1.33301" y1="295.839" x2="11.9997" y2="295.839" gradientUnits="userSpaceOnUse">
<stop stop-color="#474643"/>
<stop offset="1" stop-color="#5E5E5E"/>
</linearGradient>
<linearGradient id="paint4_linear_202_717" x1="6.66634" y1="427.397" x2="6.66634" y2="353.939" gradientUnits="userSpaceOnUse">
<stop stop-color="#7E7E7C"/>
<stop offset="0.066468" stop-color="#80807E"/>
<stop offset="0.0824877" stop-color="#E7E7E7"/>
<stop offset="0.306859" stop-color="#A1A19F"/>
<stop offset="0.343067" stop-color="#706F6B"/>
<stop offset="0.659198" stop-color="#2D2C29"/>
<stop offset="0.743629" stop-color="#63625D"/>
<stop offset="0.912967" stop-color="#76756E"/>
<stop offset="1" stop-color="#373631"/>
</linearGradient>
<linearGradient id="paint5_linear_202_717" x1="1.33301" y1="390.668" x2="11.9997" y2="390.668" gradientUnits="userSpaceOnUse">
<stop stop-color="#474643"/>
<stop offset="1" stop-color="#5E5E5E"/>
</linearGradient>
<linearGradient id="paint6_linear_202_717" x1="472.666" y1="424.726" x2="472.666" y2="311.199" gradientUnits="userSpaceOnUse">
<stop stop-color="#7E7E7C"/>
<stop offset="0.066468" stop-color="#80807E"/>
<stop offset="0.0824877" stop-color="#E7E7E7"/>
<stop offset="0.306859" stop-color="#A1A19F"/>
<stop offset="0.343067" stop-color="#706F6B"/>
<stop offset="0.659198" stop-color="#2D2C29"/>
<stop offset="0.743629" stop-color="#63625D"/>
<stop offset="0.912967" stop-color="#76756E"/>
<stop offset="1" stop-color="#373631"/>
</linearGradient>
<linearGradient id="paint7_linear_202_717" x1="466.666" y1="367.962" x2="478.666" y2="367.962" gradientUnits="userSpaceOnUse">
<stop stop-color="#474643"/>
<stop offset="1" stop-color="#5E5E5E"/>
</linearGradient>
<radialGradient id="paint8_angular_202_717" cx="0" cy="0" r="1" gradientUnits="userSpaceOnUse" gradientTransform="translate(232.948 487.5) rotate(90) scale(486.164 228.001)">
<stop offset="0.362857" stop-color="#E6EAED"/>
<stop offset="0.370506" stop-color="#FAFBFC"/>
<stop offset="0.865074" stop-color="#D7E0E7"/>
<stop offset="0.871776" stop-color="#F7F8F9"/>
</radialGradient>
<linearGradient id="paint9_linear_202_717" x1="198.463" y1="7.0564" x2="198.463" y2="10.5807" gradientUnits="userSpaceOnUse">
<stop/>
<stop offset="1" stop-color="#212121"/>
</linearGradient>
<clipPath id="clip0_202_717">
<rect width="20" height="14" fill="white" transform="translate(341.5 47)"/>
</clipPath>
</defs>
</svg>
